<svg xmlns="http://www.w3.org/2000/svg" viewBox="0 0 360 360" width="100%" height="100%">
  <defs>
    <!-- Ultra Flashy Fiery Background -->
    <radialGradient id="divineFieryGlow" cx="50%" cy="50%" r="55%">
      <stop offset="0%" stop-color="#ff8c00" stop-opacity="0.95" />
      <stop offset="30%" stop-color="#dc2626" stop-opacity="0.85" />
      <stop offset="65%" stop-color="#991b1b" stop-opacity="0.55" />
      <stop offset="100%" stop-color="#000000" stop-opacity="0" />
    </radialGradient>

    <!-- Blazing Fire Gradients -->
    <linearGradient id="flameBack" x1="0" y1="1" x2="0" y2="0">
      <stop offset="0%" stop-color="#ffea00" />
      <stop offset="35%" stop-color="#ff5722" />
      <stop offset="80%" stop-color="#dc2626" />
      <stop offset="100%" stop-color="#7f1d1d" stop-opacity="0" />
    </linearGradient>

    <linearGradient id="flameCore" x1="0" y1="1" x2="0" y2="0">
      <stop offset="0%" stop-color="#ffffff" />
      <stop offset="25%" stop-color="#ffeb3b" />
      <stop offset="60%" stop-color="#ff7043" />
      <stop offset="100%" stop-color="#b71c1c" stop-opacity="0" />
    </linearGradient>

    <!-- Radiant Mandala Gold -->
    <radialGradient id="mandalaGold" cx="50%" cy="50%" r="50%">
      <stop offset="0%" stop-color="#ffffff" stop-opacity="0.9" />
      <stop offset="30%" stop-color="#fef08a" stop-opacity="0.75" />
      <stop offset="70%" stop-color="#f59e0b" stop-opacity="0.4" />
      <stop offset="100%" stop-color="#78350f" stop-opacity="0" />
    </radialGradient>

    <!-- Gold Coin Gradient (黄金の小判) -->
    <linearGradient id="kobanGold" x1="0" y1="0" x2="1" y2="1">
      <stop offset="0%" stop-color="#fffbeb" />
      <stop offset="30%" stop-color="#fde047" />
      <stop offset="70%" stop-color="#eab308" />
      <stop offset="100%" stop-color="#854d0e" />
    </linearGradient>

    <!-- Ganesha Elephant Skin -->
    <radialGradient id="ganeshaSkin" cx="45%" cy="35%" r="65%">
      <stop offset="0%" stop-color="#e2e8f0" />
      <stop offset="45%" stop-color="#cbd5e1" />
      <stop offset="80%" stop-color="#94a3b8" />
      <stop offset="100%" stop-color="#64748b" />
    </radialGradient>

    <radialGradient id="earInner" cx="50%" cy="50%" r="50%">
      <stop offset="0%" stop-color="#fbcfe8" stop-opacity="0.9" />
      <stop offset="65%" stop-color="#f472b6" stop-opacity="0.5" />
      <stop offset="100%" stop-color="#94a3b8" stop-opacity="0" />
    </radialGradient>

    <!-- Golden Ornaments & Crown -->
    <linearGradient id="goldCrown" x1="0" y1="0" x2="1" y2="1">
      <stop offset="0%" stop-color="#ffffff" />
      <stop offset="25%" stop-color="#fde047" />
      <stop offset="65%" stop-color="#eab308" />
      <stop offset="100%" stop-color="#78350f" />
    </linearGradient>

    <!-- Draft Beer Gradients -->
    <linearGradient id="beerLiquid" x1="0" y1="0" x2="1" y2="0">
      <stop offset="0%" stop-color="#f59e0b" />
      <stop offset="35%" stop-color="#fde047" />
      <stop offset="70%" stop-color="#f59e0b" />
      <stop offset="100%" stop-color="#d97706" />
    </linearGradient>

    <linearGradient id="glassShine" x1="0" y1="0" x2="1" y2="0">
      <stop offset="0%" stop-color="#ffffff" stop-opacity="0.85" />
      <stop offset="25%" stop-color="#ffffff" stop-opacity="0.15" />
      <stop offset="70%" stop-color="#ffffff" stop-opacity="0" />
      <stop offset="100%" stop-color="#ffffff" stop-opacity="0.5" />
    </linearGradient>

    <radialGradient id="beerFoam" cx="40%" cy="30%" r="70%">
      <stop offset="0%" stop-color="#ffffff" />
      <stop offset="70%" stop-color="#fffbeb" />
      <stop offset="100%" stop-color="#fef08a" />
    </radialGradient>

    <!-- Yakitori Chicken Glaze -->
    <linearGradient id="meatGlaze" x1="0" y1="0" x2="1" y2="1">
      <stop offset="0%" stop-color="#b45309" />
      <stop offset="35%" stop-color="#78350f" />
      <stop offset="70%" stop-color="#451a03" />
      <stop offset="100%" stop-color="#1e0b02" />
    </linearGradient>

    <!-- Negi Leek -->
    <linearGradient id="negiGrad" x1="0" y1="0" x2="1" y2="1">
      <stop offset="0%" stop-color="#ecfccb" />
      <stop offset="40%" stop-color="#84cc16" />
      <stop offset="85%" stop-color="#3f6212" />
      <stop offset="100%" stop-color="#1a2e05" />
    </linearGradient>

    <!-- Heavy Drop Shadow -->
    <filter id="heavyShadow" x="-20%" y="-20%" width="140%" height="140%">
      <feDropShadow dx="0" dy="5" stdDeviation="5" flood-color="#000000" flood-opacity="0.8" />
    </filter>

    <filter id="goldGlow" x="-20%" y="-20%" width="140%" height="140%">
      <feDropShadow dx="0" dy="0" stdDeviation="4" flood-color="#fde047" flood-opacity="0.8" />
    </filter>
  </defs>

  <!-- =====================================================================
       1. ULTRA FLASHY TAVERN BACKGROUND (激しく舞う黄金光・業火・小判)
       ===================================================================== -->
  <circle cx="180" cy="180" r="176" fill="url(#divineFieryGlow)" />

  <!-- Dazzling Sunburst Rays & Mandala Geometry (超ド派手な旭光＆神仏マンダラ) -->
  <g opacity="0.48">
    <path d="M180,180 L130,0 L180,0 Z" fill="url(#mandalaGold)" />
    <path d="M180,180 L230,0 L180,0 Z" fill="url(#mandalaGold)" />
    <path d="M180,180 L310,20 L270,0 Z" fill="url(#mandalaGold)" />
    <path d="M180,180 L360,90 L340,60 Z" fill="url(#mandalaGold)" />
    <path d="M180,180 L360,180 L360,140 Z" fill="url(#mandalaGold)" />
    <path d="M180,180 L350,260 L360,230 Z" fill="url(#mandalaGold)" />
    <path d="M180,180 L0,20 L50,0 Z" fill="url(#mandalaGold)" />
    <path d="M180,180 L0,90 L20,60 Z" fill="url(#mandalaGold)" />
    <path d="M180,180 L0,180 L0,140 Z" fill="url(#mandalaGold)" />
    <path d="M180,180 L10,260 L0,230 Z" fill="url(#mandalaGold)" />

    <!-- Sacred Mandala Geometric Rings & Petals -->
    <circle cx="180" cy="180" r="162" fill="none" stroke="url(#mandalaGold)" stroke-width="2.5" stroke-dasharray="8,10" />
    <circle cx="180" cy="180" r="136" fill="none" stroke="url(#mandalaGold)" stroke-width="2" stroke-dasharray="6,8" />
    <circle cx="180" cy="180" r="108" fill="none" stroke="url(#mandalaGold)" stroke-width="1.5" />
  </g>

  <!-- Roaring Charcoal Fire & Blazing Flames -->
  <g opacity="0.9">
    <path d="M50,320 Q40,210 90,160 Q120,205 130,140 Q150,200 180,125 Q210,200 230,140 Q240,205 270,160 Q320,210 310,320 Z" fill="url(#flameBack)" />
    <path d="M85,320 Q110,235 135,195 Q155,230 180,165 Q205,230 225,195 Q250,235 275,320 Z" fill="url(#flameCore)" />
  </g>

  <!-- AUSPICIOUS GOLDEN KOBAN COINS FLOATING (商売繁盛・舞い散る黄金の小判) -->
  <g filter="url(#goldGlow)">
    <!-- Koban 1 (Top Left) -->
    <g transform="translate(68, 65) rotate(-22)">
      <rect x="-14" y="-22" width="28" height="44" rx="14" fill="url(#kobanGold)" stroke="#78350f" stroke-width="1.5" />
      <line x1="-10" y1="-10" x2="10" y2="-10" stroke="#b45309" stroke-width="1" />
      <line x1="-10" y1="10" x2="10" y2="10" stroke="#b45309" stroke-width="1" />
      <text x="0" y="4" font-family="'Hiragino Mincho ProN', serif" font-size="11" font-weight="900" fill="#78350f" text-anchor="middle">万両</text>
    </g>
    <!-- Koban 2 (Top Right) -->
    <g transform="translate(295, 60) rotate(24)">
      <rect x="-13" y="-20" width="26" height="40" rx="13" fill="url(#kobanGold)" stroke="#78350f" stroke-width="1.5" />
      <line x1="-9" y1="-9" x2="9" y2="-9" stroke="#b45309" stroke-width="1" />
      <line x1="-9" y1="9" x2="9" y2="9" stroke="#b45309" stroke-width="1" />
      <text x="0" y="4" font-family="'Hiragino Mincho ProN', serif" font-size="10" font-weight="900" fill="#78350f" text-anchor="middle">大入</text>
    </g>
    <!-- Koban 3 (Mid Left) -->
    <g transform="translate(36, 175) rotate(15)">
      <rect x="-10" y="-16" width="20" height="32" rx="10" fill="url(#kobanGold)" stroke="#78350f" stroke-width="1.2" />
      <text x="0" y="3" font-family="'Hiragino Mincho ProN', serif" font-size="8" font-weight="900" fill="#78350f" text-anchor="middle">福</text>
    </g>
    <!-- Koban 4 (Mid Right) -->
    <g transform="translate(335, 170) rotate(-18)">
      <rect x="-10" y="-16" width="20" height="32" rx="10" fill="url(#kobanGold)" stroke="#78350f" stroke-width="1.2" />
      <text x="0" y="3" font-family="'Hiragino Mincho ProN', serif" font-size="8" font-weight="900" fill="#78350f" text-anchor="middle">吉</text>
    </g>
  </g>

  <!-- Sparkling 8-Point Stars & Floating Embers -->
  <g>
    <!-- Big Glitter Stars -->
    <g transform="translate(90, 40) scale(0.9)" fill="#ffffff">
      <path d="M0,-12 L3,-3 L12,0 L3,3 L0,12 L-3,3 L-12,0 L-3,-3 Z" />
    </g>
    <g transform="translate(270, 36) scale(0.9)" fill="#ffffff">
      <path d="M0,-12 L3,-3 L12,0 L3,3 L0,12 L-3,3 L-12,0 L-3,-3 Z" />
    </g>
    <g transform="translate(180, 26) scale(0.75)" fill="#fef08a">
      <path d="M0,-12 L3,-3 L12,0 L3,3 L0,12 L-3,3 L-12,0 L-3,-3 Z" />
    </g>
    <!-- Glowing embers -->
    <circle cx="50" cy="130" r="4.5" fill="#fef08a" />
    <circle cx="310" cy="115" r="4" fill="#fef08a" />
    <circle cx="78" cy="95" r="2.5" fill="#fde047" />
    <circle cx="282" cy="90" r="2.5" fill="#fde047" />
  </g>

  <!-- Left/Right Red Izakaya Lanterns ("炭火" "大入") with Golden Borders -->
  <g opacity="0.9" filter="url(#heavyShadow)">
    <g transform="translate(14, 38)">
      <rect x="8" y="0" width="18" height="4" fill="#0f172a" rx="1" />
      <rect x="1" y="4" width="32" height="48" rx="14" fill="#b91c1c" stroke="#fde047" stroke-width="2" />
      <text x="17" y="24" font-family="'Hiragino Mincho ProN', serif" font-size="12" font-weight="900" fill="#ffffff" text-anchor="middle">炭</text>
      <text x="17" y="42" font-family="'Hiragino Mincho ProN', serif" font-size="12" font-weight="900" fill="#ffffff" text-anchor="middle">火</text>
      <rect x="8" y="52" width="18" height="4" fill="#0f172a" rx="1" />
    </g>
    <g transform="translate(314, 38)">
      <rect x="8" y="0" width="18" height="4" fill="#0f172a" rx="1" />
      <rect x="1" y="4" width="32" height="48" rx="14" fill="#b91c1c" stroke="#fde047" stroke-width="2" />
      <text x="17" y="24" font-family="'Hiragino Mincho ProN', serif" font-size="12" font-weight="900" fill="#ffffff" text-anchor="middle">大</text>
      <text x="17" y="42" font-family="'Hiragino Mincho ProN', serif" font-size="12" font-weight="900" fill="#ffffff" text-anchor="middle">入</text>
      <rect x="8" y="52" width="18" height="4" fill="#0f172a" rx="1" />
    </g>
  </g>

  <!-- =====================================================================
       2. GANESHA TAVERN MASTER (ガネーシャ大将 / 商売繁盛の福の神)
       ===================================================================== -->
  <g filter="url(#heavyShadow)">
    <!-- WIDE ELEPHANT EARS -->
    <!-- Left Ear -->
    <g>
      <path d="M125,125 C80,95 40,110 44,165 C48,210 90,225 125,190 Z" fill="url(#ganeshaSkin)" stroke="#334155" stroke-width="2.5" />
      <path d="M120,132 C88,110 58,122 60,165 C62,198 94,208 120,182 Z" fill="url(#earInner)" />
      <!-- Golden Kundala Earring -->
      <circle cx="50" cy="185" r="9" fill="none" stroke="url(#goldCrown)" stroke-width="3.5" />
      <circle cx="50" cy="195" r="3.5" fill="#f59e0b" />
    </g>
    <!-- Right Ear -->
    <g>
      <path d="M235,125 C280,95 320,110 316,165 C312,210 270,225 235,190 Z" fill="url(#ganeshaSkin)" stroke="#334155" stroke-width="2.5" />
      <path d="M240,132 C272,110 302,122 300,165 C298,198 266,208 240,182 Z" fill="url(#earInner)" />
      <!-- Golden Kundala Earring -->
      <circle cx="310" cy="185" r="9" fill="none" stroke="url(#goldCrown)" stroke-width="3.5" />
      <circle cx="310" cy="195" r="3.5" fill="#f59e0b" />
    </g>

    <!-- PLUMP BODY WITH NAVY TAVERN APRON (大将の帆前掛け) -->
    <path d="M96,215 C80,265 105,310 180,310 C255,310 280,265 264,215 Z" fill="url(#ganeshaSkin)" stroke="#334155" stroke-width="3" />

    <!-- Ornate Golden Necklace Garland on Chest (宝飾首飾り) -->
    <g filter="url(#goldGlow)">
      <path d="M136,218 Q180,240 224,218" fill="none" stroke="url(#goldCrown)" stroke-width="4.5" stroke-linecap="round" />
      <circle cx="150" cy="225" r="3.5" fill="#ef4444" stroke="#fde047" stroke-width="1" />
      <circle cx="180" cy="232" r="5" fill="#22c55e" stroke="#fde047" stroke-width="1.5" />
      <circle cx="210" cy="225" r="3.5" fill="#ef4444" stroke="#fde047" stroke-width="1" />
    </g>

    <!-- Indigo Tavern Apron (帆前掛け: "大将" / "福徳") -->
    <path d="M118,226 L242,226 L252,310 L108,310 Z" fill="#0f172a" stroke="#020617" stroke-width="3" />
    <path d="M118,226 L86,244 M242,226 L274,244" stroke="#f8fafc" stroke-width="5" stroke-linecap="round" />
    <!-- Apron Gold Plaque with Double Border -->
    <rect x="144" y="238" width="72" height="62" rx="6" fill="#ffffff" fill-opacity="0.08" stroke="url(#goldCrown)" stroke-width="2.5" />
    <text x="180" y="266" font-family="'Hiragino Mincho ProN', 'Noto Serif JP', serif" font-size="22" font-weight="900" fill="url(#goldCrown)" text-anchor="middle" letter-spacing="3">大将</text>
    <text x="180" y="290" font-family="'Hiragino Kaku Gothic ProN', sans-serif" font-size="10" font-weight="900" fill="#fde047" text-anchor="middle" letter-spacing="1">福徳ガネーシャ</text>

    <!-- GANESHA HEAD & CHEEKS -->
    <ellipse cx="180" cy="148" rx="60" ry="54" fill="url(#ganeshaSkin)" stroke="#334155" stroke-width="3" />
    <ellipse cx="138" cy="158" rx="14" ry="8" fill="#f43f5e" opacity="0.35" />
    <ellipse cx="222" cy="158" rx="14" ry="8" fill="#f43f5e" opacity="0.35" />

    <!-- TUSKS -->
    <!-- Broken Tusk (Left) -->
    <g>
      <path d="M136,172 C120,172 108,182 106,192 L116,195 C118,186 128,180 138,180 Z" fill="#f8fafc" stroke="#334155" stroke-width="2" />
      <polygon points="106,192 110,188 116,195 112,197" fill="#cbd5e1" stroke="#334155" stroke-width="1.5" />
    </g>
    <!-- Sharp Ivory Tusk (Right) -->
    <path d="M224,172 C240,172 258,184 264,204 C256,204 242,192 222,180 Z" fill="#f8fafc" stroke="#334155" stroke-width="2" />

    <!-- CURVED ELEPHANT TRUNK -->
    <g>
      <path d="M165,145 
               C165,185 155,205 140,225 
               C125,245 135,260 152,260 
               C172,260 185,240 182,215 
               C180,185 195,145 195,145 Z" 
            fill="url(#ganeshaSkin)" stroke="#334155" stroke-width="3" />
      <path d="M167,162 Q180,166 193,162" stroke="#475569" stroke-width="2" stroke-linecap="round" fill="none" />
      <path d="M164,178 Q177,182 190,178" stroke="#475569" stroke-width="2" stroke-linecap="round" fill="none" />
      <path d="M160,195 Q172,198 184,194" stroke="#475569" stroke-width="2" stroke-linecap="round" fill="none" />
      <path d="M152,214 Q164,216 178,212" stroke="#475569" stroke-width="2" stroke-linecap="round" fill="none" />
      
      <!-- Gold Ring ornament on Trunk -->
      <ellipse cx="146" cy="248" rx="8" ry="4" transform="rotate(-15 146 248)" fill="none" stroke="url(#goldCrown)" stroke-width="3" />
      <circle cx="140" cy="242" r="3" fill="#1e293b" />
    </g>

    <!-- EYES -->
    <g transform="translate(142, 134)">
      <path d="M-15,4 Q0,-6 16,1 Q2,12 -12,8 Z" fill="#ffffff" stroke="#1e293b" stroke-width="2" />
      <circle cx="2" cy="3" r="6.5" fill="#1e293b" />
      <circle cx="4" cy="1.5" r="2.2" fill="#ffffff" />
      <path d="M-16,3 Q0,-8 18,0" fill="none" stroke="#1e293b" stroke-width="3" stroke-linecap="round" />
    </g>
    <g transform="translate(218, 134)">
      <path d="M15,4 Q0,-6 -16,1 Q-2,12 12,8 Z" fill="#ffffff" stroke="#1e293b" stroke-width="2" />
      <circle cx="-2" cy="3" r="6.5" fill="#1e293b" />
      <circle cx="-4" cy="1.5" r="2.2" fill="#ffffff" />
      <path d="M16,3 Q0,-8 -18,0" fill="none" stroke="#1e293b" stroke-width="3" stroke-linecap="round" />
    </g>

    <!-- TRISHULA TILAK (額の三叉吉祥印) -->
    <g transform="translate(180, 116)">
      <path d="M-12,8 Q0,15 12,8 Q0,10 -12,8 Z" fill="url(#goldCrown)" />
      <path d="M0,8 L0,-12" stroke="#dc2626" stroke-width="3.5" stroke-linecap="round" />
      <path d="M-7,3 Q-10,-5 -5,-8" stroke="#dc2626" stroke-width="2.5" stroke-linecap="round" fill="none" />
      <path d="M7,3 Q10,-5 5,-8" stroke="#dc2626" stroke-width="2.5" stroke-linecap="round" fill="none" />
      <circle cx="0" cy="0" r="3.5" fill="#fde047" stroke="#dc2626" stroke-width="1.5" />
    </g>

    <!-- GOLDEN CROWN & HACHIMAKI (宝冠＆ねじり鉢巻) -->
    <g>
      <path d="M140,94 L180,45 L220,94 Z" fill="url(#goldCrown)" stroke="#78350f" stroke-width="2" />
      <polygon points="180,36 174,48 186,48" fill="#fef08a" stroke="#ca8a04" stroke-width="1.5" />
      <circle cx="180" cy="34" r="5" fill="#ef4444" stroke="#fde047" stroke-width="1.5" />
      <ellipse cx="180" cy="72" rx="6" ry="9" fill="#dc2626" stroke="#fde047" stroke-width="1.5" />
      <circle cx="160" cy="80" r="4" fill="#22c55e" stroke="#fef08a" stroke-width="1" />
      <circle cx="200" cy="80" r="4" fill="#22c55e" stroke="#fef08a" stroke-width="1" />

      <!-- Headband -->
      <path d="M125,98 C145,86 170,82 180,82 C190,82 215,86 235,98" 
            stroke="#991b1b" stroke-width="16" stroke-linecap="round" fill="none" />
      <path d="M125,98 C145,86 170,82 180,82 C190,82 215,86 235,98" 
            stroke="#ffffff" stroke-width="14" stroke-dasharray="8,11" stroke-linecap="round" fill="none" />
      <path d="M125,98 C145,86 170,82 180,82 C190,82 215,86 235,98" 
            stroke="#dc2626" stroke-width="12" stroke-dasharray="8,11" stroke-dashoffset="10" stroke-linecap="round" fill="none" />

      <!-- Knot -->
      <g transform="translate(122, 100) rotate(-22)">
        <ellipse cx="0" cy="0" rx="8" ry="6" fill="#ffffff" stroke="#991b1b" stroke-width="2" />
        <path d="M-4,-3 L-16,-15 L-9,-18 L-1,-6 Z" fill="#dc2626" />
        <path d="M-2,-3 L-12,-15" stroke="#ffffff" stroke-width="2" />
        <path d="M-2,3 L-16,10 L-13,16 L0,6 Z" fill="#dc2626" />
        <path d="M-2,3 L-12,11" stroke="#ffffff" stroke-width="2" />
      </g>
    </g>
  </g>

  <!-- =====================================================================
       3. LEFT HAND (SCREEN LEFT): SIZZLING YAKITORI SKEWERS (本格焼き鳥)
       ===================================================================== -->
  <g filter="url(#heavyShadow)">
    <path d="M92,205 C70,218 55,240 70,264 C78,272 96,264 100,250 C104,228 98,212 92,205 Z" fill="url(#ganeshaSkin)" stroke="#334155" stroke-width="2.5" />
    
    <!-- Steam -->
    <g opacity="0.6">
      <path d="M45,130 Q35,100 50,75 Q60,50 45,30" stroke="#ffffff" stroke-width="2.5" stroke-linecap="round" fill="none" opacity="0.5" />
      <path d="M68,140 Q55,105 75,80 Q90,55 78,35" stroke="#ffffff" stroke-width="2.5" stroke-linecap="round" fill="none" opacity="0.4" />
    </g>

    <!-- Skewer 1 (Tsukune) -->
    <g transform="rotate(-8 60 210)">
      <line x1="28" y1="110" x2="88" y2="270" stroke="#e6d5bc" stroke-width="4.5" stroke-linecap="round" />
      <circle cx="40" cy="138" r="14" fill="url(#meatGlaze)" stroke="#1a0a02" stroke-width="1.5" />
      <path d="M34,136 Q42,130 48,138" stroke="#100501" stroke-width="3" stroke-linecap="round" fill="none" />
      <circle cx="36" cy="133" r="3" fill="#fbbf24" opacity="0.6" />
      <circle cx="50" cy="168" r="15" fill="url(#meatGlaze)" stroke="#1a0a02" stroke-width="1.5" />
      <path d="M44,166 Q52,160 58,168" stroke="#100501" stroke-width="3" stroke-linecap="round" fill="none" />
      <circle cx="62" cy="198" r="15" fill="url(#meatGlaze)" stroke="#1a0a02" stroke-width="1.5" />
    </g>

    <!-- Skewer 2 (Negima) -->
    <g>
      <line x1="16" y1="102" x2="88" y2="276" stroke="#ebdcc4" stroke-width="5" stroke-linecap="round" />
      <polygon points="16,102 14,94 22,99" fill="#d7ba89" />

      <!-- Chicken 1 -->
      <path d="M20,126 C14,116 26,104 42,108 C56,112 60,128 50,140 C40,150 26,140 20,126 Z" fill="url(#meatGlaze)" stroke="#1a0a02" stroke-width="2" />
      <path d="M24,122 Q34,118 46,124" stroke="#000000" stroke-width="3.5" stroke-linecap="round" fill="none" />
      <path d="M28,114 Q38,112 42,118" stroke="#fde047" stroke-width="2.5" stroke-linecap="round" fill="none" opacity="0.8" />

      <!-- Negi 1 -->
      <g transform="translate(36, 138) rotate(26)">
        <rect x="0" y="0" width="22" height="15" rx="5" fill="url(#negiGrad)" stroke="#1a2e05" stroke-width="2" />
        <line x1="5" y1="3" x2="17" y2="3" stroke="#000000" stroke-width="2.5" stroke-linecap="round" />
        <line x1="6" y1="12" x2="16" y2="12" stroke="#000000" stroke-width="2" stroke-linecap="round" />
      </g>

      <!-- Chicken 2 -->
      <path d="M38,168 C30,156 44,144 60,148 C74,152 78,168 68,182 C56,192 42,184 38,168 Z" fill="url(#meatGlaze)" stroke="#1a0a02" stroke-width="2" />
      <path d="M42,164 Q54,158 66,166" stroke="#000000" stroke-width="4" stroke-linecap="round" fill="none" />
      <path d="M46,156 Q56,154 62,160" stroke="#fde047" stroke-width="2.5" stroke-linecap="round" fill="none" opacity="0.85" />

      <!-- Negi 2 -->
      <g transform="translate(54, 180) rotate(26)">
        <rect x="0" y="0" width="22" height="15" rx="5" fill="url(#negiGrad)" stroke="#1a2e05" stroke-width="2" />
        <line x1="5" y1="3" x2="17" y2="3" stroke="#000000" stroke-width="2.5" stroke-linecap="round" />
      </g>

      <!-- Chicken 3 -->
      <path d="M56,210 C48,198 62,186 78,190 C92,194 96,210 86,224 C74,234 60,226 56,210 Z" fill="url(#meatGlaze)" stroke="#1a0a02" stroke-width="2" />
      <path d="M60,206 Q72,200 84,208" stroke="#000000" stroke-width="4" stroke-linecap="round" fill="none" />

      <!-- Drip -->
      <path d="M84,238 Q86,248 83,254 Q80,248 82,238 Z" fill="#f59e0b" />
      <circle cx="82" cy="260" r="3" fill="#f59e0b" />
    </g>

    <!-- Hand with gold bracelet -->
    <g transform="translate(86, 252)">
      <rect x="-10" y="-14" width="20" height="6" rx="2" fill="url(#goldCrown)" stroke="#78350f" stroke-width="1" />
      <circle cx="0" cy="0" r="14" fill="#cbd5e1" stroke="#334155" stroke-width="2" />
      <circle cx="-5" cy="-7" r="6" fill="#e2e8f0" stroke="#475569" stroke-width="1.2" />
      <circle cx="0" cy="0" r="6" fill="#e2e8f0" stroke="#475569" stroke-width="1.2" />
      <circle cx="5" cy="7" r="6" fill="#e2e8f0" stroke="#475569" stroke-width="1.2" />
    </g>
  </g>

  <!-- =====================================================================
       4. RIGHT HAND (SCREEN RIGHT): DRAFT BEER MUG WITH NATURAL LOWERED HANDLE
          (取っ手を逆向きにして下側に配置し、手でしっかり握る自然な構図)
       ===================================================================== -->
  <g filter="url(#heavyShadow)">
    <!-- Right Arm reaching to grip the beer mug -->
    <path d="M260,205 C278,216 288,236 276,258 C268,266 252,258 248,244 C244,224 252,212 260,205 Z" fill="url(#ganeshaSkin)" stroke="#334155" stroke-width="2.5" />

    <!-- DRAFT BEER MUG (生中ジョッキ) -->
    <g transform="translate(294, 192) rotate(-5)">
      <!-- GLASS MUG HANDLE (取っ手を内側・下側の自然な位置に配置) -->
      <!-- The handle now connects naturally to the middle/lower body: y=6 to y=48 on the left (-X) -->
      <g>
        <!-- Outer handle stroke (chunky glass arch) -->
        <path d="M -24, 8 C -46, 8 -46, 46 -24, 46" fill="none" stroke="#e2e8f0" stroke-width="8" stroke-linecap="round" />
        <path d="M -24, 8 C -46, 8 -46, 46 -24, 46" fill="none" stroke="#94a3b8" stroke-width="3" stroke-linecap="round" />
        <path d="M -24, 10 C -43, 10 -43, 44 -24, 44" fill="none" stroke="#ffffff" stroke-width="1.5" stroke-linecap="round" opacity="0.8" />
      </g>

      <!-- Thick Glass Mug Body -->
      <rect x="-24" y="-30" width="50" height="84" rx="8" fill="#f8fafc" stroke="#94a3b8" stroke-width="2.5" />
      <!-- Heavy Glass Base -->
      <rect x="-26" y="44" width="54" height="12" rx="4" fill="#cbd5e1" stroke="#64748b" stroke-width="2" />
      <line x1="-20" y1="50" x2="22" y2="50" stroke="#ffffff" stroke-width="2" />

      <!-- Golden Sparkling Beer Liquid inside Glass -->
      <rect x="-20" y="-12" width="42" height="56" rx="4" fill="url(#beerLiquid)" />

      <!-- Carbonation Bubbles in Beer -->
      <g fill="#ffffff" opacity="0.8">
        <circle cx="-12" cy="30" r="1.8" />
        <circle cx="-14" cy="18" r="1.4" />
        <circle cx="-10" cy="5" r="2" />
        <circle cx="0" cy="36" r="1.8" />
        <circle cx="2" cy="22" r="1.5" />
        <circle cx="-2" cy="10" r="2.2" />
        <circle cx="12" cy="32" r="1.6" />
        <circle cx="14" cy="16" r="2" />
        <circle cx="8" cy="2" r="1.5" />
      </g>

      <!-- Glass Flute Grooves & Frost Reflections -->
      <line x1="-12" y1="-10" x2="-12" y2="40" stroke="url(#glassShine)" stroke-width="3" stroke-linecap="round" />
      <line x1="2" y1="-10" x2="2" y2="40" stroke="url(#glassShine)" stroke-width="3.5" stroke-linecap="round" />
      <line x1="14" y1="-10" x2="14" y2="40" stroke="url(#glassShine)" stroke-width="2" stroke-linecap="round" />

      <!-- Overflowing Creamy Froth & Head (極上もこもこ泡) -->
      <g>
        <rect x="-26" y="-36" width="54" height="26" rx="10" fill="url(#beerFoam)" stroke="#fef08a" stroke-width="1.5" />
        <circle cx="-18" cy="-35" r="11" fill="url(#beerFoam)" />
        <circle cx="-6" cy="-42" r="13" fill="#ffffff" />
        <circle cx="8" cy="-40" r="12" fill="#ffffff" />
        <circle cx="20" cy="-34" r="10" fill="url(#beerFoam)" />
        <circle cx="0" cy="-32" r="12" fill="#ffffff" />

        <!-- Foam Drips down Glass Rim -->
        <path d="M-22,-18 C-22,-8 -16,-8 -16,-18 Z" fill="#ffffff" />
        <path d="M8,-18 C8,-2 14,-2 14,-18 Z" fill="#ffffff" />
        <path d="M-4,-18 C-4,-6 2,-6 2,-18 Z" fill="#ffffff" />
      </g>

      <!-- Cold Condensation Droplets -->
      <circle cx="-14" cy="14" r="1.5" fill="#ffffff" opacity="0.8" />
      <circle cx="16" cy="24" r="1.5" fill="#ffffff" opacity="0.8" />
      <circle cx="6" cy="38" r="1.5" fill="#ffffff" opacity="0.8" />
    </g>

    <!-- Ganesha Hand Gripping the Mug Handle securely -->
    <!-- Positioned right on the handle loop at (260, 220) with gold bracelet -->
    <g transform="translate(262, 222)">
      <!-- Gold Bracelet -->
      <rect x="-10" y="-14" width="20" height="6" rx="2" fill="url(#goldCrown)" stroke="#78350f" stroke-width="1" />
      <!-- Palm & thumb holding handle -->
      <circle cx="0" cy="0" r="13" fill="#cbd5e1" stroke="#334155" stroke-width="2" />
      <!-- Fingers wrapped around handle -->
      <circle cx="6" cy="-6" r="5.5" fill="#e2e8f0" stroke="#475569" stroke-width="1.2" />
      <circle cx="7" cy="1" r="5.5" fill="#e2e8f0" stroke="#475569" stroke-width="1.2" />
      <circle cx="5" cy="8" r="5.5" fill="#e2e8f0" stroke="#475569" stroke-width="1.2" />
      <circle cx="-3" cy="11" r="5.2" fill="#e2e8f0" stroke="#475569" stroke-width="1.2" />
    </g>
  </g>

  <!-- =====================================================================
       5. BOTTOM CHARCOAL GRILL WITH RED-HOT COALS (本格七輪炭火)
       ===================================================================== -->
  <g>
    <rect x="0" y="326" width="360" height="34" fill="#09090b" />
    <line x1="0" y1="327" x2="360" y2="327" stroke="#ea580c" stroke-width="3" />
    <line x1="0" y1="331" x2="360" y2="331" stroke="#f59e0b" stroke-width="1.5" />
    
    <!-- Red-hot Binchotan Charcoal embers -->
    <g filter="url(#heavyShadow)">
      <ellipse cx="60" cy="338" rx="32" ry="7" fill="#ef4444" />
      <ellipse cx="60" cy="338" rx="20" ry="4" fill="#fde047" />

      <ellipse cx="180" cy="338" rx="48" ry="8" fill="#ff4500" />
      <ellipse cx="180" cy="338" rx="30" ry="5" fill="#fffbeb" />

      <ellipse cx="300" cy="338" rx="32" ry="7" fill="#ef4444" />
      <ellipse cx="300" cy="338" rx="20" ry="4" fill="#fde047" />
    </g>

    <!-- Grill Mesh -->
    <g opacity="0.6">
      <line x1="0" y1="334" x2="360" y2="334" stroke="#a1a1aa" stroke-width="1.2" />
      <line x1="0" y1="340" x2="360" y2="340" stroke="#71717a" stroke-width="1" />
      <line x1="30" y1="326" x2="30" y2="350" stroke="#71717a" stroke-width="1" />
      <line x1="90" y1="326" x2="90" y2="350" stroke="#71717a" stroke-width="1" />
      <line x1="150" y1="326" x2="150" y2="350" stroke="#71717a" stroke-width="1" />
      <line x1="210" y1="326" x2="210" y2="350" stroke="#71717a" stroke-width="1" />
      <line x1="270" y1="326" x2="270" y2="350" stroke="#71717a" stroke-width="1" />
      <line x1="330" y1="326" x2="330" y2="350" stroke="#71717a" stroke-width="1" />
    </g>
  </g>
</svg>
